<mxfile host="app.diagrams.net" modified="2024-07-11T21:30:38.403Z" agent="Mozilla/5.0 (Macintosh; Intel Mac OS X 10_15_7) AppleWebKit/537.36 (KHTML, like Gecko) Chrome/126.0.0.0 Safari/537.36" version="24.6.5" etag="IGa-4SSTXTymHTdJKIPK" type="github">
  <diagram name="PÃ¡gina-1" id="GL7d9_VAuksZSaH84L-C">
    <mxGraphModel>
      <root>
        <mxCell id="0" />
        <mxCell id="1" parent="0" />
      </root>
    </mxGraphModel>
  </diagram>
</mxfile>
